<svg viewBox="0 0 1557 594" fill="none" xmlns="http://www.w3.org/2000/svg">
    <g clip-path="url(#clip0_3_4)">
        <path d="M224.702 543.893C220.115 543.077 210.76 538.513 206.511 535.018C196.061 526.425 190.409 513.789 191.266 500.936C191.465 497.948 192.058 494.473 192.584 493.214C194.437 488.78 199.437 486.334 204.378 487.444C210.931 488.917 212.638 491.713 212.675 501.034C212.699 506.95 212.911 508.128 214.562 511.489C216.581 515.601 219.482 518.514 223.887 520.856C226.166 522.067 227.78 522.352 232.369 522.354C238.467 522.354 240.398 521.679 245.122 517.885C250.031 513.94 250.818 511.443 255.459 485.115C257.793 471.874 259.702 460.416 259.702 459.653C259.702 458.43 259.064 458.168 254.341 457.445C246.654 456.268 233.265 452.469 224.369 448.94C204.603 441.1 187.406 429.397 172.285 413.494C151.25 391.371 138.116 364.557 133.203 333.701C131.428 322.557 131.656 296.687 133.628 285.368C137.168 265.055 145.12 243.377 155.271 226.368C168.751 203.782 184.67 187.068 206.744 172.327C235.371 153.21 270.888 142.733 307.163 142.707C311.793 142.704 315.129 142.422 315.382 142.013C315.616 141.635 318.179 127.91 321.078 111.513C323.976 95.1166 326.793 80.2622 327.336 78.5034C331.376 65.4217 343.458 54.263 357.035 51.0725C377.824 46.1873 399.431 58.4397 405.757 78.7012C412.877 101.507 397.288 135.497 371.503 153.388C361.161 160.563 347.84 165.349 338.131 165.378C336.245 165.383 334.363 165.609 333.948 165.878C333.087 166.437 319.465 243.123 319.986 244.48C320.173 244.968 320.907 245.368 321.617 245.368C324.1 245.368 336.765 250.188 343.702 253.773C352.391 258.264 358.246 262.561 366.263 270.331C383.417 286.957 393.54 308.253 395.753 332.368C397.394 350.262 393.386 371.596 384.979 389.716C372.514 416.577 348.686 439.298 321.369 450.368C312.98 453.768 300.454 457.105 292.644 458.021C284.722 458.951 281.702 459.379 281.702 459.572C281.702 460.853 272.132 513.705 271.599 515.368C267.342 528.649 255.399 539.8 242.035 542.97C236.79 544.214 228.872 544.636 224.702 543.893ZM293.267 436.332C319.053 431.821 343.303 415.872 358.032 393.734C373.844 369.97 378.736 340.238 370.748 316.443C364.37 297.441 350.147 280.997 332.369 272.067C326.664 269.202 315.744 265.353 315.69 266.188C315.683 266.287 308.956 304.607 300.739 351.344C292.522 398.08 285.945 436.555 286.123 436.844C286.543 437.523 286.393 437.534 293.267 436.332ZM270.164 401.701C277.893 357.99 293.315 270.348 297.674 245.368C308.673 182.329 311.702 164.865 311.702 164.473C311.702 163.82 303.069 163.946 294.369 164.726C249.202 168.776 210.604 188.869 184.28 222.034C160.556 251.925 148.865 295.298 154.721 331.701C161.626 374.624 190.875 411.953 230.369 428.246C241.727 432.932 256.354 436.782 261.701 436.494L264.034 436.368L270.164 401.701ZM343.74 143.025C352.465 140.764 360.347 136.002 367.873 128.446C376.722 119.561 383.108 108.003 385.447 96.6372C386.878 89.6843 386.163 85.2052 382.822 80.2068C374.54 67.8139 357.032 68.6842 349.243 81.8759C347.853 84.231 346.681 89.7066 342.397 113.876C339.554 129.913 337.352 143.259 337.504 143.534C337.912 144.272 339.391 144.151 343.74 143.025ZM535.369 389.406C509.381 386.377 488.856 375.447 475.342 357.44C457.369 333.493 452.328 296.852 462.707 265.6C473.001 234.603 497.21 212.985 528.215 207.103C540.102 204.848 557.455 205.124 570.27 207.771C573.002 208.335 579.155 209.975 583.943 211.416C589.005 212.938 594.031 214.034 595.95 214.034C600.403 214.034 604.494 211.636 606.144 208.057C607.243 205.674 607.619 205.4 609.812 205.385L612.255 205.368L612.637 210.201C612.847 212.859 613.324 224.034 613.695 235.034C614.067 246.034 614.547 257.509 614.763 260.534L615.155 266.034H612.121C609.11 266.034 609.081 266.013 608.358 263.201C604.894 249.737 601.208 242.849 593.057 234.612C579.36 220.769 566.401 215.397 548.72 216.232C532.308 217.007 520.066 222.362 509.296 233.476C493.56 249.715 486.425 274.134 488.389 305.027C490.74 342.015 504.029 364.185 529.585 373.757C538.563 377.119 544.804 378.215 555.035 378.226C576.106 378.248 589.34 372.72 608.443 355.919L613.518 351.457L615.947 353.944L618.377 356.432L614.81 360.733C602.635 375.417 585.171 384.936 564.055 388.396C556.65 389.61 541.648 390.138 535.369 389.406ZM684.702 387.957C653.857 383.47 632.601 352.694 636.247 317.801C637.243 308.272 639.011 301.883 642.759 294.268C651.357 276.801 667.119 266.278 688.193 263.935C713.089 261.168 735.243 272.691 746.031 294.02C756.847 315.402 754.603 345.589 740.756 364.994C734.251 374.11 724.056 381.672 713.19 385.44C705.247 388.194 693.48 389.234 684.702 387.957ZM704.722 380.335C715.48 377.532 722.805 368.457 726.757 353.034C729.104 343.876 729.69 328.316 728.096 317.525C725.598 300.616 720.657 288.98 712.455 280.686C706.986 275.155 703.926 273.264 697.916 271.698C681.449 267.409 667.183 276.996 661.687 296.045C659.618 303.216 659.16 318.114 660.648 329.81C665.268 366.109 682.685 386.075 704.722 380.335ZM942.702 387.749C933.306 385.889 926.369 382.403 919.609 376.145C906.1 363.637 899.339 343.284 901.573 321.849C903.4 304.326 908.956 291.584 919.369 281.037C936.888 263.291 961.658 258.654 983.369 269.055C999.413 276.742 1005.5 292.308 995.295 299.547C991.541 302.209 986.946 302.597 983.045 300.58C979.249 298.618 976.859 295.068 975.046 288.701C972.099 278.353 970.081 274.331 967.011 272.688C964.202 271.185 958.443 270.62 953.197 271.334C937.286 273.497 925.456 286.857 922.355 306.162C921.168 313.552 921.826 328.879 923.623 335.701C926.71 347.423 933.231 357.279 941.708 363.033C948.993 367.979 952.828 369.038 963.369 369.017C970.763 369.001 972.584 368.78 975.772 367.505C983.179 364.544 989.845 358.872 996.875 349.549C999.963 345.453 1000.69 344.828 1001.73 345.385C1003.94 346.568 1003.84 347.337 1000.68 353.219C990.398 372.324 978.783 383.018 963.993 386.991C958.346 388.508 948.339 388.864 942.702 387.749ZM1061.37 388.013C1039.58 384.655 1025.15 368.977 1020.3 343.368C1019.17 337.439 1019.16 319.564 1020.28 313.368C1023.23 297.074 1030.75 283.179 1041.2 274.723C1057.02 261.925 1082.03 259.807 1098.62 269.86C1106.59 274.692 1113.69 283.662 1116.69 292.692C1118 296.618 1120.34 308.648 1120.36 311.534C1120.36 311.809 1101.88 312.034 1079.27 312.034H1038.18L1038.65 318.846C1039.87 336.56 1043.64 347.392 1052.26 357.925C1055.2 361.521 1061.64 366.171 1066.13 367.94C1073.82 370.97 1085.31 371.127 1093.83 368.319C1101.13 365.91 1108.95 359.201 1116.84 348.57C1119.23 345.342 1121.55 342.701 1121.98 342.701C1122.42 342.701 1123.34 343.114 1124.03 343.618C1125.25 344.505 1125.21 344.714 1123.1 349.785C1118.51 360.76 1111.5 370.747 1104.19 376.726C1099.25 380.755 1089.75 385.5 1083.67 386.974C1078.22 388.292 1066.67 388.83 1061.37 388.013ZM1092.74 300.201C1092.03 295.166 1089.83 287.567 1088.06 284.076C1084.79 277.635 1080.17 274.504 1072.06 273.243C1057.02 270.905 1045.5 279.052 1040.43 295.605C1039.66 298.118 1039.04 300.893 1039.04 301.771V303.368H1066.11H1093.19L1092.74 300.201ZM1262.19 387.976C1254.02 386.051 1249.1 380.509 1245.93 369.659C1244.89 366.11 1244.74 361.001 1244.53 320.201L1244.29 274.701H1237.41C1227.33 274.701 1226.5 272.711 1234.36 267.372C1241.67 262.412 1250.34 252.529 1261.73 236.201C1263.32 233.909 1265.02 232.034 1265.5 232.034C1266.19 232.034 1266.37 235.509 1266.37 249.034V266.034H1280.04H1293.7V270.368V274.701H1280.04H1266.37L1266.38 313.868C1266.38 335.409 1266.68 355.575 1267.03 358.68C1267.77 365.104 1270.25 370.825 1273.21 372.974C1275.78 374.829 1282.78 375.236 1286.66 373.755C1288.25 373.147 1291.1 371.161 1293 369.342C1294.9 367.523 1296.69 366.034 1296.98 366.034C1297.26 366.034 1298.02 366.614 1298.67 367.323C1299.79 368.559 1299.74 368.74 1297.66 371.768C1294.32 376.626 1288.29 382.203 1283.8 384.598C1277.26 388.084 1268.48 389.457 1262.2 387.976H1262.19ZM1356.7 387.957C1325.86 383.47 1304.6 352.694 1308.25 317.801C1309.24 308.272 1311.01 301.883 1314.76 294.268C1323.36 276.801 1339.12 266.277 1360.19 263.935C1385.09 261.168 1407.24 272.691 1418.03 294.019C1428.85 315.402 1426.6 345.589 1412.76 364.994C1406.25 374.11 1396.06 381.672 1385.19 385.44C1377.25 388.194 1365.48 389.234 1356.7 387.957ZM1376.72 380.335C1388.27 377.327 1396.01 366.905 1399.72 349.368C1401.12 342.707 1401.32 325.868 1400.09 317.525C1397.6 300.625 1392.66 288.981 1384.46 280.686C1378.99 275.155 1375.93 273.264 1369.92 271.698C1353.45 267.409 1339.18 276.996 1333.69 296.045C1331.62 303.216 1331.16 318.114 1332.65 329.81C1337.27 366.109 1354.68 386.074 1376.72 380.335ZM765.702 384.17C765.702 382.396 765.912 382.269 770.023 381.565C775.689 380.595 778.565 378.747 780.488 374.843L782.035 371.701L782.185 329.701C782.321 291.429 782.233 287.405 781.185 284.368C779.59 279.745 777.132 278.491 770.535 278.938L765.702 279.265V277.362C765.702 275.504 765.911 275.393 774.535 272.692C779.394 271.17 787.523 268.471 792.602 266.693C797.68 264.915 802.255 263.622 802.768 263.819C803.513 264.105 803.702 266.256 803.702 274.439C803.702 284.46 804.119 286.326 805.698 283.375C806.858 281.208 817.653 272.121 822.346 269.361C840.617 258.616 861.422 263.156 869.053 279.552C873.323 288.728 873.251 287.904 873.661 331.701L874.035 371.701L875.702 375C877.64 378.835 880.13 380.366 886.294 381.512C890.141 382.228 890.369 382.375 890.369 384.152V386.034H862.702H835.035V384.034C835.035 382.387 835.308 382.034 836.581 382.034C837.431 382.034 839.648 381.583 841.507 381.031C845.434 379.865 849.132 376.238 850.463 372.248C851.624 368.769 852.113 301.695 851.023 295.368C849.057 283.95 843.838 278.787 833.645 278.178C824.819 277.651 818.094 280.681 808.802 289.374L804.31 293.576L804.506 332.972C804.696 371.184 804.743 372.448 806.07 375.034C807.743 378.298 812.695 381.063 818.065 381.734C821.524 382.166 821.702 382.282 821.702 384.111V386.034H793.702H765.702V384.17ZM1132.37 384.09C1132.37 382.203 1132.52 382.113 1137.64 381.008C1147.52 378.872 1150.63 375.891 1151.36 367.851C1151.6 365.202 1151.7 346.384 1151.58 326.034C1151.37 289.503 1151.35 288.994 1149.9 285.845C1147.96 281.647 1145.15 280.368 1139.22 280.976C1136.93 281.211 1134.58 281.586 1133.99 281.809C1133.14 282.137 1132.98 281.801 1133.15 280.06L1133.37 277.906L1146.04 273.387C1153 270.901 1161.84 267.637 1165.68 266.133C1169.52 264.629 1172.89 263.624 1173.17 263.9C1173.44 264.176 1173.75 269.735 1173.85 276.253L1174.04 288.103L1177.7 282.97C1183.56 274.765 1190.26 268.329 1195.51 265.854C1199.42 264.014 1200.76 263.724 1205.37 263.724C1209.81 263.723 1211.2 264 1213.69 265.387C1217.96 267.759 1220.03 271.689 1220.01 277.368C1219.99 282.959 1218.41 286.312 1214.97 288.068C1210.11 290.548 1205.63 289.547 1200.07 284.733C1195.16 280.484 1193.01 279.63 1189.72 280.617C1185.53 281.874 1178.86 288.525 1176.01 294.297L1173.65 299.069L1173.84 335.052C1174.03 370.776 1174.05 371.054 1175.52 373.805C1178.17 378.767 1182.62 380.949 1191.86 381.806C1196.28 382.217 1196.37 382.264 1196.37 384.13V386.034H1164.37H1132.37V384.09Z" fill="#472836"/>
    </g>
    <defs>
        <clipPath id="clip0_3_4">
            <rect width="1292.86" height="494.26" fill="white" transform="translate(132 50)"/>
        </clipPath>
    </defs>
</svg>
